<?xml version="1.0" encoding="UTF-8" standalone="no"?>
<svg width="55px" height="55px" viewBox="0 0 55 55" version="1.1" xmlns="http://www.w3.org/2000/svg" xmlns:xlink="http://www.w3.org/1999/xlink">
    <!-- Generator: Sketch 41.2 (35397) - http://www.bohemiancoding.com/sketch -->
    <title>Group</title>
    <desc>Created with Sketch.</desc>
    <defs></defs>
    <g id="Home-Page" stroke="none" stroke-width="1" fill="none" fill-rule="evenodd">
        <g id="Desktop" transform="translate(-204.000000, -116.000000)">
            <g id="Group" transform="translate(204.000000, 116.000000)">
                <circle id="Oval-2" fill="#FF3A1A" cx="27.5" cy="27.5" r="27.5"></circle>
                <g id="ios-person" transform="translate(14.000000, 14.000000)" fill="#FFFFFF">
                    <g id="Layer_1">
                        <path d="M22.5534375,22.6040625 C21.465,22.2159375 19.9040625,22.0809375 18.9084375,21.8615625 C18.3346875,21.735 17.499375,21.414375 17.2209375,21.0853125 C16.9425,20.7478125 17.11125,17.634375 17.11125,17.634375 C17.11125,17.634375 17.6259375,16.824375 17.904375,16.115625 C18.1828125,15.406875 18.4865625,13.46625 18.4865625,13.46625 C18.4865625,13.46625 19.0603125,13.46625 19.2628125,12.4621875 C19.4821875,11.3653125 19.8196875,10.9096875 19.7775,10.09125 C19.7353125,9.331875 19.33875,9.2896875 19.2965625,9.2896875 L19.2965625,9.2896875 C19.2965625,9.2896875 19.71,8.1421875 19.7690625,5.7121875 C19.8365625,2.835 17.634375,0 13.5,0 C9.365625,0 7.171875,2.8265625 7.2309375,5.70375 C7.2815625,8.1253125 7.7034375,9.28125 7.7034375,9.28125 L7.7034375,9.28125 C7.66125,9.28125 7.2646875,9.3234375 7.2225,10.0828125 C7.1803125,10.90125 7.52625,11.34 7.7371875,12.436875 C7.9396875,13.4409375 8.5134375,13.449375 8.5134375,13.449375 C8.5134375,13.449375 8.8171875,15.3984375 9.095625,16.1071875 C9.3740625,16.824375 9.88875,17.6259375 9.88875,17.6259375 C9.88875,17.6259375 10.0575,20.739375 9.7790625,21.076875 C9.500625,21.414375 8.6653125,21.7265625 8.0915625,21.853125 C7.0875,22.0725 5.535,22.2159375 4.4465625,22.6040625 C3.358125,22.9921875 0,24.3 0,27 L13.5,27 L27,27 C27,24.3 23.641875,22.9921875 22.5534375,22.6040625 Z" id="Shape"></path>
                    </g>
                </g>
            </g>
        </g>
    </g>
</svg>