<?xml version="1.0" encoding="UTF-8" standalone="no"?>
<svg width="55px" height="55px" viewBox="0 0 55 55" version="1.1" xmlns="http://www.w3.org/2000/svg" xmlns:xlink="http://www.w3.org/1999/xlink">
    <!-- Generator: Sketch 41.2 (35397) - http://www.bohemiancoding.com/sketch -->
    <title>Group 2</title>
    <desc>Created with Sketch.</desc>
    <defs></defs>
    <g id="Home-Page" stroke="none" stroke-width="1" fill="none" fill-rule="evenodd">
        <g id="Desktop" transform="translate(-295.000000, -116.000000)">
            <g id="Group-2" transform="translate(295.000000, 116.000000)">
                <g id="Group-Copy" fill="#FF3A1A">
                    <circle id="Oval-2" cx="27.5" cy="27.5" r="27.5"></circle>
                </g>
                <g id="email" transform="translate(12.000000, 19.000000)" fill="#FFFFFF">
                    <g id="Layer_1">
                        <g id="Group">
                            <path d="M1.41247002,1.53632812 C2.23021583,1.96679688 13.5894484,8.14921875 14.0131894,8.371875 C14.4369305,8.59453125 14.8681055,8.6984375 15.5371703,8.6984375 C16.206235,8.6984375 16.6374101,8.59453125 17.0611511,8.371875 C17.4848921,8.14921875 28.8441247,1.96679688 29.6618705,1.53632812 C29.9666667,1.38046875 30.4796163,1.0984375 30.5911271,0.779296875 C30.7844125,0.215234375 30.576259,0 29.7510791,0 L15.5371703,0 L1.32326139,0 C0.498081535,0 0.289928058,0.22265625 0.483213429,0.779296875 C0.594724221,1.10585938 1.10767386,1.38046875 1.41247002,1.53632812 Z" id="Shape"></path>
                            <path d="M30.3086331,1.8703125 C29.6990408,2.18203125 24.2275779,6.07109375 20.6071942,8.40898438 L26.7179856,15.2742188 C26.8666667,15.4226563 26.9335731,15.6007813 26.8517986,15.6898438 C26.7625899,15.7714844 26.5693046,15.7269531 26.4131894,15.5859375 L19.0832134,9.4109375 C17.9755396,10.1234375 17.194964,10.6132813 17.0611511,10.6875 C16.488729,10.9769531 16.0872902,11.0140625 15.5371703,11.0140625 C14.9870504,11.0140625 14.5856115,10.9769531 14.0131894,10.6875 C13.8719424,10.6132813 13.098801,10.1234375 11.9911271,9.4109375 L4.66115108,15.5859375 C4.51247002,15.734375 4.3117506,15.7789063 4.22254197,15.6898438 C4.13333333,15.6082031 4.20023981,15.4226563 4.34892086,15.2742188 L10.4522782,8.40898438 C6.83189448,6.07109375 1.30095923,2.18203125 0.691366906,1.8703125 C0.0371702638,1.53632813 0,1.9296875 0,2.23398438 L0,17.4488281 C0,18.1390625 1.01846523,19 1.7470024,19 L15.5371703,19 L29.3273381,19 C30.0558753,19 30.9256595,18.1316406 30.9256595,17.4488281 L30.9256595,2.23398438 C30.9256595,1.92226563 30.9702638,1.53632813 30.3086331,1.8703125 Z" id="Shape"></path>
                        </g>
                    </g>
                </g>
            </g>
        </g>
    </g>
</svg>