<?xml version="1.0" encoding="UTF-8"?>
<svg width="10px" height="18px" viewBox="0 0 10 18" version="1.1" xmlns="http://www.w3.org/2000/svg" xmlns:xlink="http://www.w3.org/1999/xlink">
    <!-- Generator: Sketch 41.1 (35376) - http://www.bohemiancoding.com/sketch -->
    <title>chevron-right</title>
    <desc>Created with Sketch.</desc>
    <defs></defs>
    <g id="Home-Page" stroke="none" stroke-width="1" fill="none" fill-rule="evenodd">
        <g id="Portfolio---INDEX-•-Desktop-HD" transform="translate(-838.000000, -503.000000)" fill="#FFFFFF">
            <g id="BUTTON-PLUS" transform="translate(810.000000, 480.000000)">
                <g id="chevron-right" transform="translate(28.000000, 23.000000)">
                    <g id="Layer_1">
                        <path d="M6.65358384,8.99810268 L6.65358384,8.99810268 L6.65358384,8.99810268 L0.122333839,2.39162946 C-0.0417286606,2.22845982 -0.0378224106,1.95904018 0.130146339,1.79207589 L1.29811509,0.630915179 C1.46608384,0.463950893 1.73952134,0.46015625 1.90358384,0.623325893 L9.88014634,8.69453125 C9.96608384,8.77801339 10.0051463,8.89185268 9.99733384,9.00189732 C10.0012401,9.11573661 9.96217759,9.22578125 9.88014634,9.30926339 L1.90358384,17.3766741 C1.73952134,17.5398438 1.46608384,17.5360491 1.29811509,17.3690848 L0.130146339,16.2079241 C-0.0378224106,16.0409598 -0.0417286606,15.7715402 0.122333839,15.6083705 L6.65358384,8.99810268 Z" id="Shape"></path>
                    </g>
                </g>
            </g>
        </g>
    </g>
</svg>