<?xml version="1.0" encoding="UTF-8" standalone="no"?>
<svg width="55px" height="55px" viewBox="0 0 55 55" version="1.1" xmlns="http://www.w3.org/2000/svg" xmlns:xlink="http://www.w3.org/1999/xlink">
    <!-- Generator: Sketch 41.2 (35397) - http://www.bohemiancoding.com/sketch -->
    <title>Group 3</title>
    <desc>Created with Sketch.</desc>
    <defs></defs>
    <g id="Home-Page" stroke="none" stroke-width="1" fill="none" fill-rule="evenodd">
        <g id="Desktop" transform="translate(-386.000000, -116.000000)">
            <g id="Group-3" transform="translate(386.000000, 116.000000)">
                <g id="Group-Copy-2" fill="#FF3A1A">
                    <circle id="Oval-2" cx="27.5" cy="27.5" r="27.5"></circle>
                </g>
                <g id="ios-telephone" transform="translate(15.000000, 14.000000)" fill="#FFFFFF">
                    <g id="Layer_1">
                        <path d="M24.9111408,18.8230826 C23.8312757,17.7178829 20.7617962,15.6474756 18.7499927,15.6474756 C18.2840235,15.6474756 17.877225,15.7506275 17.5443899,15.9642995 C16.5606772,16.5905793 15.7766655,17.0768671 15.3994524,17.0768671 C15.192355,17.0768671 14.9704649,16.8926672 14.4823067,16.4726913 L14.400947,16.3990113 C13.0474174,15.2274997 12.7589603,14.9254118 12.2338204,14.3801799 L12.1006864,14.240188 C12.004534,14.144404 11.9231743,14.055988 11.8418146,13.97494 C11.3832418,13.5033882 11.0504066,13.1644603 9.87438916,11.8382207 L9.82261481,11.7792767 C9.26049325,11.1456289 8.89067644,10.733021 8.86848743,10.4309331 C8.84629842,10.1362132 9.10517019,9.65729331 9.76344412,8.76576558 C10.5622484,7.69003789 10.5918338,6.36379828 9.85959649,4.82388673 C9.27528592,3.60816709 8.32115854,2.44402343 7.47797621,1.41987174 L7.40401284,1.33145576 C6.67917189,0.447296022 5.83598955,0.0052161516 4.89665484,0.0052161516 C3.85377143,0.0052161516 2.98840008,0.565183987 2.52982723,0.8599039 C2.49284555,0.882007894 2.45586387,0.911479885 2.41888219,0.933583879 C1.39079144,1.58196769 0.643761477,2.47349543 0.362700699,3.37975916 C-0.0588904698,4.74283876 -0.339951249,6.51115824 1.67924856,10.1877892 C3.42478392,13.3707642 5.00759989,15.5074836 7.52235422,18.0789148 C9.88918184,20.4956181 10.9394616,21.2766259 13.2914965,22.9712654 C15.9097996,24.8574728 18.4245539,25.9405685 20.1848819,25.9405685 C21.8194723,25.9405685 23.1064348,25.9405685 24.9407262,23.7375372 C26.8637736,21.4239859 26.0649693,20.0093303 24.9111408,18.8230826 Z" id="Shape"></path>
                    </g>
                </g>
            </g>
        </g>
    </g>
</svg>