<?xml version="1.0" encoding="UTF-8" standalone="no"?>
<svg width="262px" height="262px" viewBox="0 0 262 262" version="1.1" xmlns="http://www.w3.org/2000/svg" xmlns:xlink="http://www.w3.org/1999/xlink">
    <!-- Generator: Sketch 39.1 (31720) - http://www.bohemiancoding.com/sketch -->
    <title>Logo</title>
    <desc>Created with Sketch.</desc>
    <defs></defs>
    <g id="Home-Page" stroke="none" stroke-width="1" fill="none" fill-rule="evenodd">
        <g id="Intro-•-Desktop-HD" transform="translate(-589.000000, -259.000000)">
            <g id="Group-3" transform="translate(-141.000000, 260.000000)">
                <g id="Logo" transform="translate(731.000000, 0.000000)">
                    <g id="Welcome">
                        <g id="Icone">
                            <g id="Logo">
                                <path d="M130.190304,260.380607 C175.267218,260.380607 214.993457,237.47164 238.361366,202.661359 C252.267574,181.945812 260.380607,157.015508 260.380607,130.190304 C260.380607,58.2881843 202.092423,0 130.190304,0 C58.2881843,0 0,58.2881843 0,130.190304 C0,202.092423 58.2881843,260.380607 130.190304,260.380607 Z" id="Oval-2" stroke="#FFFFFF"></path>
                                <g id="Group" transform="translate(98.341174, 46.935560)">
                                    <path d="M62.1230541,26.2791473 C57.147171,26.2791473 52.4582296,27.2445832 48.0651276,29.1687193 C43.6675768,31.0951007 39.8083202,33.6883063 36.4940305,36.9528266 C33.1730679,40.2195922 30.5594502,44.0723548 28.6554019,48.5066242 C26.7446806,52.945384 25.7926565,57.6760197 25.7926565,62.7007766 L25.7926565,64.2073056 C36.0780761,56.3378808 48.1874671,52.4020456 62.1230541,52.4020456 L62.1230541,77.770557 C57.8078045,77.770557 53.8262082,78.4845304 50.1782653,79.9057419 C46.528098,81.3314437 43.1248341,83.212921 39.9751468,85.5569095 C36.1581529,88.5699675 32.9662028,92.2565853 30.3970722,96.6077823 C27.823493,100.965715 26.2909121,105.819837 25.7926565,111.176883 L25.7926565,177.48661 L0.161408528,177.48661 L0.161408528,62.7007766 C-0.00541813149,54.160037 1.56942554,46.0818086 4.89038822,38.4616008 C8.20690222,30.8436383 12.6845298,24.22928 18.3277196,18.618526 C23.9642362,13.0100172 30.5594502,8.53308903 38.1111369,5.18100589 C45.658375,1.83341316 53.6638303,0.156248999 62.1230541,0.156248999 L62.1230541,26.2791473 L62.1230541,26.2791473 Z" id="Stroke-1" stroke="#FFFFFF"></path>
                                    <path d="M0.0372894933,114.692641 C-0.129537166,106.151902 1.4052681,98.0759184 4.63948093,90.4534654 C7.87369377,82.8377481 12.3135072,76.1807311 17.9544727,70.4869046 C23.5909895,64.7953234 30.2284661,60.2757365 37.8602297,56.9236533 C45.4897688,53.5738154 53.6197881,51.8988964 62.2480628,51.8988964 L62.2480628,78.0217947 C57.2699554,78.0217947 52.5810141,78.9872306 48.1856877,80.9091215 C43.7903613,82.8377481 39.9333289,85.4309537 36.6145906,88.6977193 C33.2958523,91.9622396 30.6822346,95.8531706 28.7781863,100.375003 C26.8696893,104.896835 25.9176652,109.67013 25.9176652,114.692641 L25.9176652,177.486386 L0.0372894933,177.486386 L0.0372894933,114.692641 L0.0372894933,114.692641 Z" id="Fill-3" fill="#FFFFFF"></path>
                                </g>
                            </g>
                        </g>
                    </g>
                </g>
            </g>
        </g>
    </g>
</svg>